<svg xmlns="http://www.w3.org/2000/svg" width="48" height="48"><path fill-rule="evenodd" d="M43 42H5a4 4 0 0 1-4-4V10a4 4 0 0 1 4-4h38a4 4 0 0 1 4 4v28a4 4 0 0 1-4 4zM12 8H5a2 2 0 0 0-2 2v2h9V8zm11 0h-9v4h9V8zm11 0h-9v4h9V8zm11 2a2 2 0 0 0-2-2h-7v4h9v-2zm0 4H3v20h42V14zm0 22h-9v4h-2v-4h-9v4h-2v-4h-9v4h-2v-4H3v2a2 2 0 0 0 2 2h38a2 2 0 0 0 2-2v-2zm-23.379-6.235A.987.987 0 0 1 21 30a1 1 0 0 1-1-1V19a1 1 0 0 1 1-1c.213 0 .4.082.563.196l7.771 4.872A.99.99 0 0 1 30 24a.981.981 0 0 1-.405.783l-7.974 4.982z" clip-rule="evenodd"/></svg>